<svg width="50" height="54" viewBox="0 0 50 54" fill="none" xmlns="http://www.w3.org/2000/svg">
<path d="M28.0907 25.5648C31.2861 28.7044 32.7703 35.0301 34.5622 33.3134C36.0546 31.8842 36.332 28.6576 36.5436 27.396C36.573 27.2147 36.6431 27.0425 36.7486 26.8923C36.8541 26.742 36.9922 26.6177 37.1525 26.5286C39.4326 25.2671 48.5228 19.178 49.0007 4.62256C34.4688 5.0999 28.3415 14.2543 27.0819 16.538C26.9929 16.6986 26.8688 16.8369 26.7188 16.9426C26.5688 17.0482 26.3969 17.1184 26.2159 17.1479C24.9565 17.3599 21.7349 17.6383 20.308 19.1325C18.5926 20.9253 24.9563 22.3642 28.0907 25.5648Z" stroke="white" stroke-width="1.5" stroke-linejoin="round"/>
<path d="M41.3013 14.5849C42.5517 14.5849 43.5654 13.5712 43.5654 12.3208C43.5654 11.0703 42.5517 10.0566 41.3013 10.0566C40.0508 10.0566 39.0371 11.0703 39.0371 12.3208C39.0371 13.5712 40.0508 14.5849 41.3013 14.5849Z" stroke="white" stroke-width="1.5" stroke-linejoin="round"/>
<path d="M23.6407 22.7358C23.6407 22.7358 3.78683 21.8298 2.81055 1" stroke="white" stroke-width="1.5" stroke-linecap="round" stroke-linejoin="round"/>
<path d="M26.3585 24.3572C26.3585 24.3572 15.6017 33.9314 1 22.7358" stroke="white" stroke-width="1.5" stroke-linecap="round" stroke-linejoin="round"/>
<path d="M28.1699 26.3584C28.1699 26.3584 13.0878 37.5075 21.8496 52.6225" stroke="white" stroke-width="1.5" stroke-linecap="round" stroke-linejoin="round"/>
<path d="M29.2992 27.2642C29.2992 27.2642 21.248 39.8944 31.7933 52.6227" stroke="white" stroke-width="1.5" stroke-linecap="round" stroke-linejoin="round"/>
<path d="M23.6415 29.981C23.6415 29.981 14.9066 38.0953 1 32.5999" stroke="white" stroke-width="1.5" stroke-linecap="round" stroke-linejoin="round"/>
</svg>
