<svg width="126" height="26" viewBox="0 0 126 26" fill="none" xmlns="http://www.w3.org/2000/svg">
<path d="M9.12695 26H5.05957V4.88281H0.0126953V0.798828H14.1572V4.88281H9.12695V26ZM21.1133 26H17.0459V0.832031H27.8535L31.1904 4.16895V13.0176L27.9531 16.2383L31.8379 26H27.4385L23.6035 16.3379H21.1133V26ZM21.1133 4.91602V12.2705H26.1934L27.1064 11.3076V5.8457L26.1934 4.91602H21.1133ZM33.3486 26L37.8809 0.798828H44.6377L49.1201 26H44.9863L43.8906 19.7744H38.6279L37.499 26H33.3486ZM41.2344 5.01562L39.3418 15.6904H43.1436L41.2344 5.01562ZM55.5781 26H51.4941V0.832031H55.5781V26ZM58.9648 26V0.832031H65.7051L71.6152 21.916V0.832031H75.7324V26H68.7266L62.8496 4.10254V26H58.9648Z" fill="white"/>
<path d="M86.9551 26V0.798828H94.3096L97.9453 18.8945L101.581 0.798828H108.919V26H104.835V4.58398L99.8711 26H96.0029L91.0391 4.58398V26H86.9551ZM125.039 26H112.322V0.832031H125.039V4.91602H116.406V11.374H122.217V15.458H116.406V21.916H125.039V26Z" fill="#CBFD72"/>
</svg>
