<svg width="24" height="24" viewBox="0 0 24 24" fill="none" xmlns="http://www.w3.org/2000/svg">
<path d="M4.43945 18.0719C4.43945 18.6159 4.67145 19.0479 5.13545 19.3679C5.39145 19.5119 5.66345 19.5839 5.95145 19.5839C6.17545 19.5839 6.39945 19.5279 6.62345 19.4159L18.7435 13.3679C18.9835 13.2399 19.1835 13.0559 19.3435 12.8159C19.5035 12.5759 19.5755 12.3039 19.5595 11.9999C19.5435 11.6959 19.4715 11.4319 19.3435 11.2079C19.2155 10.9839 19.0155 10.7999 18.7435 10.6559L6.62345 4.60794C6.39945 4.49594 6.17545 4.43994 5.95145 4.43994C5.67945 4.43994 5.40745 4.51194 5.13545 4.65594C4.67145 4.95994 4.43945 5.39194 4.43945 5.95194V18.0719Z" fill="black"/>
</svg>
